<mxfile host="Electron" agent="Mozilla/5.0 (X11; Linux x86_64) AppleWebKit/537.36 (KHTML, like Gecko) draw.io/26.1.1 Chrome/132.0.6834.210 Electron/34.3.3 Safari/537.36" version="26.1.1">
  <diagram id="cV-HFwil49Mr_x0fwf0c" name="第 1 页">
    <mxGraphModel dx="2189" dy="2012" grid="1" gridSize="10" guides="0" tooltips="1" connect="1" arrows="1" fold="1" page="1" pageScale="1" pageWidth="827" pageHeight="1169" math="0" shadow="0">
      <root>
        <mxCell id="0" />
        <mxCell id="1" parent="0" />
        <mxCell id="FP1et5ljPNJLmlY0rd01-3" value="" style="swimlane;startSize=0;fontSize=14;" parent="1" vertex="1" collapsed="1">
          <mxGeometry x="-680" y="60" width="50" height="40" as="geometry">
            <mxRectangle x="-680" y="60" width="730" height="690" as="alternateBounds" />
          </mxGeometry>
        </mxCell>
        <mxCell id="FP1et5ljPNJLmlY0rd01-24" value="&lt;h1 style=&quot;font-size: 14px&quot;&gt;&lt;font style=&quot;font-size: 14px&quot;&gt;kimera_multi&lt;/font&gt;&lt;/h1&gt;&lt;div style=&quot;font-size: 14px&quot;&gt;&lt;font style=&quot;font-size: 14px&quot;&gt;single&lt;/font&gt;&lt;/div&gt;" style="text;html=1;strokeColor=none;fillColor=none;spacing=5;spacingTop=-20;whiteSpace=wrap;overflow=hidden;rounded=0;container=0;" parent="FP1et5ljPNJLmlY0rd01-3" vertex="1">
          <mxGeometry x="50" y="55" width="130" height="40" as="geometry" />
        </mxCell>
        <mxCell id="FP1et5ljPNJLmlY0rd01-27" value="&lt;p&gt;&lt;font style=&quot;font-size: 12px&quot;&gt;1014-example_single.yaml&lt;/font&gt;&lt;/p&gt;" style="text;html=1;strokeColor=none;fillColor=none;align=center;verticalAlign=middle;whiteSpace=wrap;rounded=0;fontSize=20;" parent="FP1et5ljPNJLmlY0rd01-3" vertex="1">
          <mxGeometry x="200" y="65" width="170" height="30" as="geometry" />
        </mxCell>
        <mxCell id="FP1et5ljPNJLmlY0rd01-30" value="&lt;div style=&quot;font-family: &amp;#34;jetbrains mono&amp;#34; , &amp;#34;consolas&amp;#34; , &amp;#34;courier new&amp;#34; , monospace ; font-size: 14px ; line-height: 19px&quot;&gt;&lt;span&gt;kimera_multi:&lt;/span&gt;&lt;/div&gt;&lt;div style=&quot;font-family: &amp;#34;jetbrains mono&amp;#34; , &amp;#34;consolas&amp;#34; , &amp;#34;courier new&amp;#34; , monospace ; font-size: 14px ; line-height: 19px&quot;&gt;&lt;span&gt;kimera_vio_jackal.launch&lt;/span&gt;&lt;/div&gt;" style="text;html=1;align=center;verticalAlign=middle;resizable=0;points=[];autosize=1;strokeColor=none;fillColor=none;fontSize=12;fontColor=default;labelBackgroundColor=none;" parent="FP1et5ljPNJLmlY0rd01-3" vertex="1">
          <mxGeometry x="64.99999999999994" y="145" width="220" height="40" as="geometry" />
        </mxCell>
        <mxCell id="FP1et5ljPNJLmlY0rd01-25" style="edgeStyle=none;rounded=0;orthogonalLoop=1;jettySize=auto;html=1;entryX=0.498;entryY=-0.03;entryDx=0;entryDy=0;entryPerimeter=0;fontSize=12;fontColor=default;" parent="FP1et5ljPNJLmlY0rd01-3" source="FP1et5ljPNJLmlY0rd01-27" target="FP1et5ljPNJLmlY0rd01-30" edge="1">
          <mxGeometry relative="1" as="geometry" />
        </mxCell>
        <mxCell id="FP1et5ljPNJLmlY0rd01-31" value="&lt;div style=&quot;font-family: &amp;#34;jetbrains mono&amp;#34; , &amp;#34;consolas&amp;#34; , &amp;#34;courier new&amp;#34; , monospace ; font-weight: normal ; font-size: 14px ; line-height: 19px&quot;&gt;&lt;div&gt;&lt;span&gt;kimera_distributed:&lt;/span&gt;&lt;/div&gt;&lt;div&gt;&lt;span&gt;mit_rosbag.launch&lt;/span&gt;&lt;/div&gt;&lt;/div&gt;" style="text;whiteSpace=wrap;html=1;fontSize=12;fontColor=default;labelBackgroundColor=none;align=center;" parent="FP1et5ljPNJLmlY0rd01-3" vertex="1">
          <mxGeometry x="340" y="145" width="130" height="30" as="geometry" />
        </mxCell>
        <mxCell id="FP1et5ljPNJLmlY0rd01-26" style="edgeStyle=none;rounded=0;orthogonalLoop=1;jettySize=auto;html=1;entryX=0.5;entryY=0;entryDx=0;entryDy=0;fontSize=12;fontColor=default;" parent="FP1et5ljPNJLmlY0rd01-3" source="FP1et5ljPNJLmlY0rd01-27" target="FP1et5ljPNJLmlY0rd01-31" edge="1">
          <mxGeometry relative="1" as="geometry" />
        </mxCell>
        <mxCell id="FP1et5ljPNJLmlY0rd01-33" value="&lt;div style=&quot;font-family: &amp;#34;jetbrains mono&amp;#34; , &amp;#34;consolas&amp;#34; , &amp;#34;courier new&amp;#34; , monospace ; font-weight: normal ; font-size: 14px ; line-height: 19px&quot;&gt;&lt;div&gt;kimera_vio_ros:&lt;/div&gt;&lt;div&gt;&lt;div style=&quot;font-family: &amp;#34;jetbrains mono&amp;#34; , &amp;#34;consolas&amp;#34; , &amp;#34;courier new&amp;#34; , monospace ; line-height: 19px&quot;&gt;kimera_vio_ros.launch&lt;/div&gt;&lt;/div&gt;&lt;/div&gt;" style="text;whiteSpace=wrap;html=1;fontSize=12;fontColor=default;align=center;labelBackgroundColor=none;" parent="FP1et5ljPNJLmlY0rd01-3" vertex="1">
          <mxGeometry x="180" y="235" width="140" height="50" as="geometry" />
        </mxCell>
        <mxCell id="FP1et5ljPNJLmlY0rd01-28" style="edgeStyle=none;rounded=0;orthogonalLoop=1;jettySize=auto;html=1;entryX=0.5;entryY=0;entryDx=0;entryDy=0;fontSize=12;fontColor=#000000;" parent="FP1et5ljPNJLmlY0rd01-3" source="FP1et5ljPNJLmlY0rd01-30" target="FP1et5ljPNJLmlY0rd01-33" edge="1">
          <mxGeometry relative="1" as="geometry" />
        </mxCell>
        <mxCell id="FP1et5ljPNJLmlY0rd01-34" value="other node" style="text;html=1;align=center;verticalAlign=middle;resizable=0;points=[];autosize=1;strokeColor=none;fillColor=none;fontSize=12;fontColor=#000000;" parent="FP1et5ljPNJLmlY0rd01-3" vertex="1">
          <mxGeometry x="54.99999999999994" y="255" width="70" height="20" as="geometry" />
        </mxCell>
        <mxCell id="FP1et5ljPNJLmlY0rd01-29" style="edgeStyle=none;rounded=0;orthogonalLoop=1;jettySize=auto;html=1;entryX=0.577;entryY=-0.04;entryDx=0;entryDy=0;entryPerimeter=0;fontSize=12;fontColor=#000000;" parent="FP1et5ljPNJLmlY0rd01-3" source="FP1et5ljPNJLmlY0rd01-30" target="FP1et5ljPNJLmlY0rd01-34" edge="1">
          <mxGeometry relative="1" as="geometry" />
        </mxCell>
        <mxCell id="FP1et5ljPNJLmlY0rd01-37" value="&lt;span style=&quot;font-family: &amp;#34;jetbrains mono&amp;#34; , &amp;#34;consolas&amp;#34; , &amp;#34;courier new&amp;#34; , monospace ; font-size: 14px ; text-align: left&quot;&gt;KimeraVioRos&lt;br&gt;::&lt;/span&gt;&lt;span style=&quot;font-family: &amp;#34;jetbrains mono&amp;#34; , &amp;#34;consolas&amp;#34; , &amp;#34;courier new&amp;#34; , monospace ; font-size: 14px&quot;&gt;runKimeraVio()&lt;/span&gt;" style="rounded=0;whiteSpace=wrap;html=1;labelBackgroundColor=none;fontSize=12;fontColor=default;" parent="FP1et5ljPNJLmlY0rd01-3" vertex="1">
          <mxGeometry x="209.75" y="385" width="140" height="40" as="geometry" />
        </mxCell>
        <mxCell id="FP1et5ljPNJLmlY0rd01-38" value="&lt;div style=&quot;font-family: &amp;#34;jetbrains mono&amp;#34; , &amp;#34;consolas&amp;#34; , &amp;#34;courier new&amp;#34; , monospace ; font-size: 14px&quot;&gt;kimera_vio_ros_node&amp;nbsp;&lt;b&gt;f:x&lt;/b&gt;&amp;nbsp;&lt;/div&gt;&lt;div style=&quot;font-family: &amp;#34;jetbrains mono&amp;#34; , &amp;#34;consolas&amp;#34; , &amp;#34;courier new&amp;#34; , monospace ; font-size: 14px&quot;&gt;KimeraVioRosNode.cpp::main&lt;/div&gt;" style="rounded=1;whiteSpace=wrap;html=1;labelBackgroundColor=none;fontSize=12;fontColor=default;" parent="FP1et5ljPNJLmlY0rd01-3" vertex="1">
          <mxGeometry x="161.99999999999994" y="325" width="235" height="40" as="geometry" />
        </mxCell>
        <mxCell id="FP1et5ljPNJLmlY0rd01-32" style="edgeStyle=none;rounded=0;orthogonalLoop=1;jettySize=auto;html=1;entryX=0.5;entryY=0;entryDx=0;entryDy=0;fontSize=12;fontColor=default;" parent="FP1et5ljPNJLmlY0rd01-3" source="FP1et5ljPNJLmlY0rd01-33" target="FP1et5ljPNJLmlY0rd01-38" edge="1">
          <mxGeometry relative="1" as="geometry">
            <mxPoint x="282.5" y="315" as="targetPoint" />
          </mxGeometry>
        </mxCell>
        <mxCell id="FP1et5ljPNJLmlY0rd01-35" value="" style="edgeStyle=none;rounded=0;orthogonalLoop=1;jettySize=auto;html=1;fontSize=12;fontColor=default;entryX=0.5;entryY=0;entryDx=0;entryDy=0;exitX=0.5;exitY=1;exitDx=0;exitDy=0;" parent="FP1et5ljPNJLmlY0rd01-3" source="FP1et5ljPNJLmlY0rd01-38" target="FP1et5ljPNJLmlY0rd01-37" edge="1">
          <mxGeometry relative="1" as="geometry">
            <mxPoint x="280.909090909091" y="385" as="sourcePoint" />
            <mxPoint x="273.96875" y="415" as="targetPoint" />
          </mxGeometry>
        </mxCell>
        <mxCell id="FP1et5ljPNJLmlY0rd01-39" value="&lt;span style=&quot;font-family: &amp;#34;jetbrains mono&amp;#34; , &amp;#34;consolas&amp;#34; , &amp;#34;courier new&amp;#34; , monospace ; font-size: 14px&quot;&gt;spin()&lt;/span&gt;" style="whiteSpace=wrap;html=1;rounded=0;labelBackgroundColor=none;" parent="FP1et5ljPNJLmlY0rd01-3" vertex="1">
          <mxGeometry x="209.25" y="445" width="140.5" height="30" as="geometry" />
        </mxCell>
        <mxCell id="FP1et5ljPNJLmlY0rd01-36" value="" style="edgeStyle=orthogonalEdgeStyle;rounded=0;orthogonalLoop=1;jettySize=auto;html=1;fontSize=12;fontColor=default;" parent="FP1et5ljPNJLmlY0rd01-3" source="FP1et5ljPNJLmlY0rd01-37" target="FP1et5ljPNJLmlY0rd01-39" edge="1">
          <mxGeometry relative="1" as="geometry" />
        </mxCell>
        <mxCell id="FP1et5ljPNJLmlY0rd01-40" style="edgeStyle=orthogonalEdgeStyle;rounded=0;orthogonalLoop=1;jettySize=auto;html=1;entryX=1;entryY=0.5;entryDx=0;entryDy=0;fontSize=12;fontColor=default;exitX=0;exitY=0.5;exitDx=0;exitDy=0;" parent="FP1et5ljPNJLmlY0rd01-3" source="FP1et5ljPNJLmlY0rd01-39" target="FP1et5ljPNJLmlY0rd01-39" edge="1">
          <mxGeometry relative="1" as="geometry" />
        </mxCell>
        <mxCell id="FP1et5ljPNJLmlY0rd01-41" value="" style="shape=flexArrow;endArrow=none;startArrow=none;html=1;rounded=0;fontSize=12;fontColor=default;startFill=0;endFill=0;exitX=1;exitY=0.5;exitDx=0;exitDy=0;" parent="FP1et5ljPNJLmlY0rd01-3" source="FP1et5ljPNJLmlY0rd01-37" edge="1">
          <mxGeometry width="100" height="100" relative="1" as="geometry">
            <mxPoint x="380" y="395" as="sourcePoint" />
            <mxPoint x="420" y="405" as="targetPoint" />
          </mxGeometry>
        </mxCell>
        <mxCell id="FP1et5ljPNJLmlY0rd01-42" value="&lt;div style=&quot;font-family: &amp;quot;jetbrains mono&amp;quot;, consolas, &amp;quot;courier new&amp;quot;, monospace; font-size: 14px; line-height: 19px;&quot;&gt;&lt;span style=&quot;&quot;&gt;vio_pipeline_&lt;/span&gt;&lt;/div&gt;&lt;div style=&quot;font-family: &amp;quot;jetbrains mono&amp;quot;, consolas, &amp;quot;courier new&amp;quot;, monospace; font-size: 14px; line-height: 19px;&quot;&gt;&lt;div style=&quot;font-family: &amp;quot;jetbrains mono&amp;quot; , &amp;quot;consolas&amp;quot; , &amp;quot;courier new&amp;quot; , monospace ; line-height: 19px&quot;&gt;&lt;span style=&quot;&quot;&gt;data_provider_&lt;/span&gt;&lt;/div&gt;&lt;/div&gt;" style="rounded=0;whiteSpace=wrap;html=1;labelBackgroundColor=none;fontSize=12;fontColor=default;" parent="FP1et5ljPNJLmlY0rd01-3" vertex="1">
          <mxGeometry x="440" y="345" width="140" height="40" as="geometry" />
        </mxCell>
        <mxCell id="FP1et5ljPNJLmlY0rd01-43" value="" style="swimlane;startSize=0;fontSize=14;fontFamily=jetbrains mono;" parent="1" vertex="1">
          <mxGeometry x="-690" y="380" width="1140" height="760" as="geometry">
            <mxRectangle x="-680" y="60" width="50" height="40" as="alternateBounds" />
          </mxGeometry>
        </mxCell>
        <mxCell id="FP1et5ljPNJLmlY0rd01-44" value="&lt;h1 style=&quot;font-size: 14px&quot;&gt;&lt;font style=&quot;font-size: 14px&quot;&gt;kimera_multi&lt;/font&gt;&lt;/h1&gt;&lt;div style=&quot;font-size: 14px&quot;&gt;&lt;font style=&quot;font-size: 14px&quot;&gt;muti&lt;/font&gt;&lt;/div&gt;&lt;div style=&quot;font-size: 14px&quot;&gt;&lt;font style=&quot;font-size: 14px&quot;&gt;&lt;br&gt;&lt;/font&gt;&lt;/div&gt;" style="text;html=1;strokeColor=none;fillColor=none;spacing=5;spacingTop=-20;whiteSpace=wrap;overflow=hidden;rounded=0;container=0;fontFamily=jetbrains mono;" parent="FP1et5ljPNJLmlY0rd01-43" vertex="1">
          <mxGeometry x="20" y="30" width="130" height="40" as="geometry" />
        </mxCell>
        <mxCell id="FP1et5ljPNJLmlY0rd01-46" value="&lt;div style=&quot;font-size: 14px; line-height: 19px;&quot;&gt;&lt;span&gt;kimera_multi:&lt;/span&gt;&lt;/div&gt;&lt;div style=&quot;font-size: 14px; line-height: 19px;&quot;&gt;&lt;span&gt;kimera_vio_jackal.launch&lt;/span&gt;&lt;/div&gt;" style="text;html=1;align=center;verticalAlign=middle;resizable=0;points=[];autosize=1;strokeColor=none;fillColor=none;fontSize=12;fontColor=default;labelBackgroundColor=none;fontFamily=jetbrains mono;" parent="FP1et5ljPNJLmlY0rd01-43" vertex="1">
          <mxGeometry x="169.99999999999994" y="145" width="220" height="40" as="geometry" />
        </mxCell>
        <mxCell id="FP1et5ljPNJLmlY0rd01-47" style="edgeStyle=none;rounded=0;orthogonalLoop=1;jettySize=auto;html=1;entryX=0.498;entryY=-0.03;entryDx=0;entryDy=0;entryPerimeter=0;fontSize=12;fontColor=default;exitX=0.465;exitY=0.98;exitDx=0;exitDy=0;exitPerimeter=0;fontFamily=jetbrains mono;" parent="FP1et5ljPNJLmlY0rd01-43" source="FP1et5ljPNJLmlY0rd01-63" target="FP1et5ljPNJLmlY0rd01-46" edge="1">
          <mxGeometry relative="1" as="geometry">
            <mxPoint x="364.0344827586207" y="95" as="sourcePoint" />
          </mxGeometry>
        </mxCell>
        <mxCell id="FP1et5ljPNJLmlY0rd01-48" value="&lt;div style=&quot;font-weight: normal; font-size: 14px; line-height: 19px;&quot;&gt;&lt;div&gt;&lt;span&gt;kimera_distributed:&lt;/span&gt;&lt;/div&gt;&lt;div&gt;&lt;span&gt;mit_rosbag.launch&lt;/span&gt;&lt;/div&gt;&lt;/div&gt;" style="text;whiteSpace=wrap;html=1;fontSize=12;fontColor=default;labelBackgroundColor=none;align=center;fontFamily=jetbrains mono;" parent="FP1et5ljPNJLmlY0rd01-43" vertex="1">
          <mxGeometry x="20" y="140" width="130" height="30" as="geometry" />
        </mxCell>
        <mxCell id="FP1et5ljPNJLmlY0rd01-49" style="edgeStyle=none;rounded=0;orthogonalLoop=1;jettySize=auto;html=1;entryX=0.5;entryY=0;entryDx=0;entryDy=0;fontSize=12;fontColor=default;exitX=0.5;exitY=0.9;exitDx=0;exitDy=0;exitPerimeter=0;fontFamily=jetbrains mono;" parent="FP1et5ljPNJLmlY0rd01-43" source="FP1et5ljPNJLmlY0rd01-63" target="FP1et5ljPNJLmlY0rd01-48" edge="1">
          <mxGeometry relative="1" as="geometry">
            <mxPoint x="417.6923076923076" y="95" as="sourcePoint" />
          </mxGeometry>
        </mxCell>
        <mxCell id="FP1et5ljPNJLmlY0rd01-67" style="edgeStyle=none;rounded=0;orthogonalLoop=1;jettySize=auto;html=1;entryX=0.443;entryY=0.031;entryDx=0;entryDy=0;entryPerimeter=0;fontFamily=jetbrains mono;fontSize=12;fontColor=default;" parent="FP1et5ljPNJLmlY0rd01-43" source="FP1et5ljPNJLmlY0rd01-50" target="FP1et5ljPNJLmlY0rd01-65" edge="1">
          <mxGeometry relative="1" as="geometry" />
        </mxCell>
        <mxCell id="FP1et5ljPNJLmlY0rd01-50" value="&lt;div style=&quot;font-weight: normal; font-size: 14px; line-height: 19px;&quot;&gt;&lt;div&gt;kimera_vio_ros:&lt;/div&gt;&lt;div&gt;&lt;div style=&quot;line-height: 19px;&quot;&gt;kimera_vio_ros.launch&lt;/div&gt;&lt;/div&gt;&lt;/div&gt;" style="text;whiteSpace=wrap;html=1;fontSize=12;fontColor=default;align=center;labelBackgroundColor=none;fontFamily=jetbrains mono;" parent="FP1et5ljPNJLmlY0rd01-43" vertex="1">
          <mxGeometry x="285" y="235" width="140" height="50" as="geometry" />
        </mxCell>
        <mxCell id="FP1et5ljPNJLmlY0rd01-51" style="edgeStyle=none;rounded=0;orthogonalLoop=1;jettySize=auto;html=1;entryX=0.5;entryY=0;entryDx=0;entryDy=0;fontSize=12;fontColor=#000000;fontFamily=jetbrains mono;" parent="FP1et5ljPNJLmlY0rd01-43" source="FP1et5ljPNJLmlY0rd01-46" target="FP1et5ljPNJLmlY0rd01-50" edge="1">
          <mxGeometry relative="1" as="geometry" />
        </mxCell>
        <mxCell id="FP1et5ljPNJLmlY0rd01-52" value="other node" style="text;html=1;align=center;verticalAlign=middle;resizable=0;points=[];autosize=1;strokeColor=none;fillColor=none;fontSize=12;fontColor=#000000;fontFamily=jetbrains mono;" parent="FP1et5ljPNJLmlY0rd01-43" vertex="1">
          <mxGeometry x="80" y="265" width="90" height="20" as="geometry" />
        </mxCell>
        <mxCell id="FP1et5ljPNJLmlY0rd01-53" style="edgeStyle=none;rounded=0;orthogonalLoop=1;jettySize=auto;html=1;entryX=0.577;entryY=-0.04;entryDx=0;entryDy=0;entryPerimeter=0;fontSize=12;fontColor=#000000;fontFamily=jetbrains mono;" parent="FP1et5ljPNJLmlY0rd01-43" source="FP1et5ljPNJLmlY0rd01-46" target="FP1et5ljPNJLmlY0rd01-52" edge="1">
          <mxGeometry relative="1" as="geometry" />
        </mxCell>
        <mxCell id="FP1et5ljPNJLmlY0rd01-54" value="&lt;span style=&quot;font-size: 14px; text-align: left;&quot;&gt;KimeraVioRos&lt;br&gt;::&lt;/span&gt;&lt;span style=&quot;font-size: 14px;&quot;&gt;runKimeraVio()&lt;/span&gt;" style="rounded=0;whiteSpace=wrap;html=1;labelBackgroundColor=none;fontSize=12;fontColor=default;fontFamily=jetbrains mono;" parent="FP1et5ljPNJLmlY0rd01-43" vertex="1">
          <mxGeometry x="314.75" y="385" width="140" height="40" as="geometry" />
        </mxCell>
        <mxCell id="FP1et5ljPNJLmlY0rd01-55" value="&lt;div style=&quot;font-size: 14px&quot;&gt;kimera_vio_ros_node&amp;nbsp;&lt;b&gt;.x&lt;/b&gt;&amp;nbsp;&lt;/div&gt;&lt;div style=&quot;font-size: 14px&quot;&gt;KimeraVioRosNode.cpp::main&lt;/div&gt;" style="rounded=1;whiteSpace=wrap;html=1;labelBackgroundColor=none;fontSize=12;fontColor=default;fontFamily=jetbrains mono;" parent="FP1et5ljPNJLmlY0rd01-43" vertex="1">
          <mxGeometry x="266.99999999999994" y="325" width="235" height="40" as="geometry" />
        </mxCell>
        <mxCell id="FP1et5ljPNJLmlY0rd01-56" style="edgeStyle=none;rounded=0;orthogonalLoop=1;jettySize=auto;html=1;entryX=0.5;entryY=0;entryDx=0;entryDy=0;fontSize=12;fontColor=default;fontFamily=jetbrains mono;" parent="FP1et5ljPNJLmlY0rd01-43" source="FP1et5ljPNJLmlY0rd01-50" target="FP1et5ljPNJLmlY0rd01-55" edge="1">
          <mxGeometry relative="1" as="geometry">
            <mxPoint x="387.5" y="315" as="targetPoint" />
          </mxGeometry>
        </mxCell>
        <mxCell id="FP1et5ljPNJLmlY0rd01-57" value="" style="edgeStyle=none;rounded=0;orthogonalLoop=1;jettySize=auto;html=1;fontSize=12;fontColor=default;entryX=0.5;entryY=0;entryDx=0;entryDy=0;exitX=0.5;exitY=1;exitDx=0;exitDy=0;fontFamily=jetbrains mono;" parent="FP1et5ljPNJLmlY0rd01-43" source="FP1et5ljPNJLmlY0rd01-55" target="FP1et5ljPNJLmlY0rd01-54" edge="1">
          <mxGeometry relative="1" as="geometry">
            <mxPoint x="385.909090909091" y="385" as="sourcePoint" />
            <mxPoint x="378.96875" y="415" as="targetPoint" />
          </mxGeometry>
        </mxCell>
        <mxCell id="FP1et5ljPNJLmlY0rd01-58" value="&lt;span style=&quot;font-size: 14px;&quot;&gt;spin()&lt;/span&gt;" style="whiteSpace=wrap;html=1;rounded=0;labelBackgroundColor=none;fontFamily=jetbrains mono;" parent="FP1et5ljPNJLmlY0rd01-43" vertex="1">
          <mxGeometry x="314.25" y="445" width="140.5" height="30" as="geometry" />
        </mxCell>
        <mxCell id="FP1et5ljPNJLmlY0rd01-59" value="" style="edgeStyle=orthogonalEdgeStyle;rounded=0;orthogonalLoop=1;jettySize=auto;html=1;fontSize=12;fontColor=default;fontFamily=jetbrains mono;" parent="FP1et5ljPNJLmlY0rd01-43" source="FP1et5ljPNJLmlY0rd01-54" target="FP1et5ljPNJLmlY0rd01-58" edge="1">
          <mxGeometry relative="1" as="geometry" />
        </mxCell>
        <mxCell id="FP1et5ljPNJLmlY0rd01-60" style="edgeStyle=orthogonalEdgeStyle;rounded=0;orthogonalLoop=1;jettySize=auto;html=1;entryX=1;entryY=0.5;entryDx=0;entryDy=0;fontSize=12;fontColor=default;exitX=0;exitY=0.5;exitDx=0;exitDy=0;fontFamily=jetbrains mono;" parent="FP1et5ljPNJLmlY0rd01-43" source="FP1et5ljPNJLmlY0rd01-58" target="FP1et5ljPNJLmlY0rd01-58" edge="1">
          <mxGeometry relative="1" as="geometry" />
        </mxCell>
        <mxCell id="FP1et5ljPNJLmlY0rd01-61" value="" style="shape=flexArrow;endArrow=none;startArrow=none;html=1;rounded=0;fontSize=12;fontColor=default;startFill=0;endFill=0;exitX=1;exitY=0.5;exitDx=0;exitDy=0;fontFamily=jetbrains mono;" parent="FP1et5ljPNJLmlY0rd01-43" source="FP1et5ljPNJLmlY0rd01-54" edge="1">
          <mxGeometry width="100" height="100" relative="1" as="geometry">
            <mxPoint x="485" y="395" as="sourcePoint" />
            <mxPoint x="525" y="405" as="targetPoint" />
          </mxGeometry>
        </mxCell>
        <mxCell id="FP1et5ljPNJLmlY0rd01-62" value="&lt;div style=&quot;font-size: 14px; line-height: 19px;&quot;&gt;&lt;span style=&quot;&quot;&gt;vio_pipeline_&lt;/span&gt;&lt;/div&gt;&lt;div style=&quot;font-size: 14px; line-height: 19px;&quot;&gt;&lt;div style=&quot;line-height: 19px;&quot;&gt;&lt;span style=&quot;&quot;&gt;data_provider_&lt;/span&gt;&lt;/div&gt;&lt;/div&gt;" style="rounded=0;whiteSpace=wrap;html=1;labelBackgroundColor=none;fontSize=12;fontColor=default;fontFamily=jetbrains mono;" parent="FP1et5ljPNJLmlY0rd01-43" vertex="1">
          <mxGeometry x="520" y="385" width="140" height="40" as="geometry" />
        </mxCell>
        <mxCell id="FP1et5ljPNJLmlY0rd01-69" style="edgeStyle=none;rounded=0;orthogonalLoop=1;jettySize=auto;html=1;entryX=0.5;entryY=0;entryDx=0;entryDy=0;fontFamily=jetbrains mono;fontSize=12;fontColor=default;" parent="FP1et5ljPNJLmlY0rd01-43" source="FP1et5ljPNJLmlY0rd01-63" target="FP1et5ljPNJLmlY0rd01-68" edge="1">
          <mxGeometry relative="1" as="geometry" />
        </mxCell>
        <mxCell id="mfrsPGcJHBAsWg7DGjIN-7" style="edgeStyle=none;rounded=0;orthogonalLoop=1;jettySize=auto;html=1;entryX=0.02;entryY=0.6;entryDx=0;entryDy=0;entryPerimeter=0;fontColor=default;" parent="FP1et5ljPNJLmlY0rd01-43" source="FP1et5ljPNJLmlY0rd01-63" target="mfrsPGcJHBAsWg7DGjIN-5" edge="1">
          <mxGeometry relative="1" as="geometry" />
        </mxCell>
        <mxCell id="FP1et5ljPNJLmlY0rd01-63" value="&lt;div style=&quot;font-size: 14px; line-height: 19px;&quot;&gt;&lt;span&gt;1014-example.yaml&lt;/span&gt;&lt;/div&gt;&lt;div style=&quot;font-size: 14px; line-height: 19px;&quot;&gt;&lt;div style=&quot;line-height: 19px;&quot;&gt;&lt;span style=&quot;&quot;&gt;multirobot:=true&lt;/span&gt;&lt;/div&gt;&lt;/div&gt;" style="text;html=1;align=center;verticalAlign=middle;resizable=0;points=[];autosize=1;strokeColor=none;fillColor=none;fontSize=12;fontColor=default;labelBackgroundColor=none;fontFamily=jetbrains mono;" parent="FP1et5ljPNJLmlY0rd01-43" vertex="1">
          <mxGeometry x="322" y="50" width="160" height="40" as="geometry" />
        </mxCell>
        <mxCell id="FP1et5ljPNJLmlY0rd01-65" value="&lt;div style=&quot;font-family: &amp;#34;jetbrains mono&amp;#34; , &amp;#34;consolas&amp;#34; , &amp;#34;courier new&amp;#34; , monospace ; font-size: 14px ; line-height: 19px&quot;&gt;&lt;span&gt;pose_graph_tools_ros:&lt;/span&gt;&lt;/div&gt;&lt;div style=&quot;font-family: &amp;#34;jetbrains mono&amp;#34; , &amp;#34;consolas&amp;#34; , &amp;#34;courier new&amp;#34; , monospace ; font-size: 14px ; line-height: 19px&quot;&gt;&lt;span&gt;posegraph_view.launch&lt;/span&gt;&lt;/div&gt;" style="text;html=1;align=center;verticalAlign=middle;resizable=0;points=[];autosize=1;strokeColor=none;fillColor=none;fontSize=12;fontFamily=jetbrains mono;fontColor=default;labelBackgroundColor=default;" parent="FP1et5ljPNJLmlY0rd01-43" vertex="1">
          <mxGeometry x="40" y="325" width="190" height="40" as="geometry" />
        </mxCell>
        <mxCell id="FP1et5ljPNJLmlY0rd01-71" style="edgeStyle=none;rounded=0;orthogonalLoop=1;jettySize=auto;html=1;fontFamily=jetbrains mono;fontSize=12;fontColor=default;" parent="FP1et5ljPNJLmlY0rd01-43" source="FP1et5ljPNJLmlY0rd01-68" target="FP1et5ljPNJLmlY0rd01-70" edge="1">
          <mxGeometry relative="1" as="geometry" />
        </mxCell>
        <mxCell id="FP1et5ljPNJLmlY0rd01-68" value="&lt;div style=&quot;font-weight: normal ; font-size: 14px ; line-height: 19px&quot;&gt;&lt;div&gt;&lt;span&gt;kimera_distributed:&lt;/span&gt;&lt;/div&gt;&lt;div&gt;&lt;div style=&quot;font-family: &amp;quot;jetbrains mono&amp;quot;, consolas, &amp;quot;courier new&amp;quot;, monospace; line-height: 19px;&quot;&gt;&lt;span style=&quot;&quot;&gt;dpgo.launch&lt;/span&gt;&lt;/div&gt;&lt;/div&gt;&lt;/div&gt;" style="text;whiteSpace=wrap;html=1;fontSize=12;fontColor=default;labelBackgroundColor=none;align=center;fontFamily=jetbrains mono;" parent="FP1et5ljPNJLmlY0rd01-43" vertex="1">
          <mxGeometry x="480" y="170" width="130" height="45" as="geometry" />
        </mxCell>
        <mxCell id="FP1et5ljPNJLmlY0rd01-73" style="edgeStyle=none;rounded=0;orthogonalLoop=1;jettySize=auto;html=1;entryX=0.5;entryY=0;entryDx=0;entryDy=0;fontFamily=jetbrains mono;fontSize=12;fontColor=default;" parent="FP1et5ljPNJLmlY0rd01-43" source="FP1et5ljPNJLmlY0rd01-70" target="FP1et5ljPNJLmlY0rd01-72" edge="1">
          <mxGeometry relative="1" as="geometry" />
        </mxCell>
        <mxCell id="FP1et5ljPNJLmlY0rd01-70" value="&lt;div style=&quot;font-family: &amp;#34;jetbrains mono&amp;#34; , &amp;#34;consolas&amp;#34; , &amp;#34;courier new&amp;#34; , monospace ; font-size: 14px ; line-height: 19px&quot;&gt;&lt;span&gt;dpgo_ros:&lt;/span&gt;&lt;/div&gt;&lt;div style=&quot;font-family: &amp;#34;jetbrains mono&amp;#34; , &amp;#34;consolas&amp;#34; , &amp;#34;courier new&amp;#34; , monospace ; font-size: 14px ; line-height: 19px&quot;&gt;&lt;span&gt;PGOAgent.launch&lt;/span&gt;&lt;/div&gt;" style="text;html=1;align=center;verticalAlign=middle;resizable=0;points=[];autosize=1;strokeColor=none;fillColor=none;fontSize=12;fontFamily=jetbrains mono;fontColor=default;labelBackgroundColor=none;" parent="FP1et5ljPNJLmlY0rd01-43" vertex="1">
          <mxGeometry x="800" y="225" width="140" height="40" as="geometry" />
        </mxCell>
        <mxCell id="FP1et5ljPNJLmlY0rd01-76" style="edgeStyle=none;rounded=0;orthogonalLoop=1;jettySize=auto;html=1;entryX=0.5;entryY=0;entryDx=0;entryDy=0;fontFamily=jetbrains mono;fontSize=12;fontColor=default;" parent="FP1et5ljPNJLmlY0rd01-43" source="FP1et5ljPNJLmlY0rd01-72" target="FP1et5ljPNJLmlY0rd01-74" edge="1">
          <mxGeometry relative="1" as="geometry" />
        </mxCell>
        <mxCell id="FP1et5ljPNJLmlY0rd01-72" value="&lt;div style=&quot;font-size: 14px&quot;&gt;&lt;span style=&quot;font-family: &amp;quot;jetbrains mono&amp;quot; , &amp;quot;consolas&amp;quot; , &amp;quot;courier new&amp;quot; , monospace&quot;&gt;dpgo_ros_node&amp;nbsp;&amp;nbsp;&lt;/span&gt;&lt;b&gt;.x&lt;/b&gt;&amp;nbsp;&lt;/div&gt;&lt;div style=&quot;font-size: 14px&quot;&gt;&lt;span style=&quot;font-family: &amp;quot;jetbrains mono&amp;quot;, consolas, &amp;quot;courier new&amp;quot;, monospace;&quot;&gt;PGOAgentROSNode.cpp&lt;/span&gt;::main&lt;/div&gt;" style="rounded=1;whiteSpace=wrap;html=1;labelBackgroundColor=none;fontSize=12;fontColor=default;fontFamily=jetbrains mono;" parent="FP1et5ljPNJLmlY0rd01-43" vertex="1">
          <mxGeometry x="760" y="300" width="235" height="40" as="geometry" />
        </mxCell>
        <mxCell id="FP1et5ljPNJLmlY0rd01-74" value="&lt;div style=&quot;font-family: &amp;quot;jetbrains mono&amp;quot; , &amp;quot;consolas&amp;quot; , &amp;quot;courier new&amp;quot; , monospace ; font-size: 14px ; line-height: 19px&quot;&gt;&lt;div style=&quot;font-family: &amp;quot;jetbrains mono&amp;quot;, consolas, &amp;quot;courier new&amp;quot;, monospace; line-height: 19px;&quot;&gt;ros::&lt;span style=&quot;&quot;&gt;spinOnce&lt;/span&gt;()&lt;/div&gt;&lt;/div&gt;&lt;div style=&quot;font-family: &amp;quot;jetbrains mono&amp;quot; , &amp;quot;consolas&amp;quot; , &amp;quot;courier new&amp;quot; , monospace ; font-size: 14px ; line-height: 19px&quot;&gt;&lt;span&gt;dpgo_ros&lt;/span&gt;::&lt;span&gt;PGOAgentROS&lt;/span&gt; &lt;span&gt;agent.&lt;/span&gt;&lt;span style=&quot;font-family: &amp;quot;jetbrains mono&amp;quot;, consolas, &amp;quot;courier new&amp;quot;, monospace;&quot;&gt;runOnce&lt;/span&gt;&lt;span style=&quot;font-family: &amp;quot;jetbrains mono&amp;quot;, consolas, &amp;quot;courier new&amp;quot;, monospace;&quot;&gt;()&lt;/span&gt;&lt;/div&gt;" style="whiteSpace=wrap;html=1;rounded=0;labelBackgroundColor=none;fontFamily=jetbrains mono;fontColor=default;" parent="FP1et5ljPNJLmlY0rd01-43" vertex="1">
          <mxGeometry x="767.5" y="365" width="220" height="55" as="geometry" />
        </mxCell>
        <mxCell id="FP1et5ljPNJLmlY0rd01-82" style="edgeStyle=orthogonalEdgeStyle;rounded=0;orthogonalLoop=1;jettySize=auto;html=1;exitX=1;exitY=0.5;exitDx=0;exitDy=0;fontFamily=jetbrains mono;fontSize=12;fontColor=default;entryX=0.5;entryY=1;entryDx=0;entryDy=0;" parent="FP1et5ljPNJLmlY0rd01-43" source="FP1et5ljPNJLmlY0rd01-74" target="FP1et5ljPNJLmlY0rd01-74" edge="1">
          <mxGeometry relative="1" as="geometry">
            <Array as="points">
              <mxPoint x="1020" y="392" />
              <mxPoint x="1020" y="440" />
              <mxPoint x="878" y="440" />
            </Array>
          </mxGeometry>
        </mxCell>
        <mxCell id="FP1et5ljPNJLmlY0rd01-84" value="" style="shape=flexArrow;endArrow=none;startArrow=none;html=1;rounded=0;fontFamily=jetbrains mono;fontSize=12;fontColor=default;entryX=0;entryY=0.5;entryDx=0;entryDy=0;startFill=0;endFill=0;exitX=0;exitY=0.5;exitDx=0;exitDy=0;" parent="FP1et5ljPNJLmlY0rd01-43" source="FP1et5ljPNJLmlY0rd01-85" target="FP1et5ljPNJLmlY0rd01-74" edge="1">
          <mxGeometry width="100" height="100" relative="1" as="geometry">
            <mxPoint x="760" y="660" as="sourcePoint" />
            <mxPoint x="860" y="560" as="targetPoint" />
            <Array as="points">
              <mxPoint x="700" y="610" />
              <mxPoint x="700" y="393" />
            </Array>
          </mxGeometry>
        </mxCell>
        <mxCell id="FP1et5ljPNJLmlY0rd01-85" value="" style="swimlane;startSize=0;labelBackgroundColor=none;fontFamily=jetbrains mono;fontSize=12;fontColor=default;fillColor=none;gradientColor=none;html=1;" parent="FP1et5ljPNJLmlY0rd01-43" vertex="1">
          <mxGeometry x="720" y="490" width="400" height="240" as="geometry" />
        </mxCell>
        <mxCell id="FP1et5ljPNJLmlY0rd01-86" value="&lt;span style=&quot;font-family: &amp;#34;jetbrains mono&amp;#34; , &amp;#34;consolas&amp;#34; , &amp;#34;courier new&amp;#34; , monospace ; font-size: 14px&quot;&gt;dpgo_ros&lt;/span&gt;&lt;span style=&quot;font-family: &amp;#34;jetbrains mono&amp;#34; , &amp;#34;consolas&amp;#34; , &amp;#34;courier new&amp;#34; , monospace ; font-size: 14px&quot;&gt;::&lt;/span&gt;&lt;span style=&quot;font-family: &amp;#34;jetbrains mono&amp;#34; , &amp;#34;consolas&amp;#34; , &amp;#34;courier new&amp;#34; , monospace ; font-size: 14px&quot;&gt;PGOAgentROS()&lt;/span&gt;" style="text;html=1;strokeColor=none;fillColor=none;align=center;verticalAlign=middle;whiteSpace=wrap;rounded=0;labelBackgroundColor=none;fontFamily=jetbrains mono;fontSize=12;fontColor=default;" parent="FP1et5ljPNJLmlY0rd01-85" vertex="1">
          <mxGeometry x="20" y="10" width="170" height="30" as="geometry" />
        </mxCell>
        <mxCell id="FP1et5ljPNJLmlY0rd01-87" value="&lt;div style=&quot;font-family: &amp;#34;jetbrains mono&amp;#34; , &amp;#34;consolas&amp;#34; , &amp;#34;courier new&amp;#34; , monospace ; font-size: 14px ; line-height: 19px&quot;&gt;Publisher: ......&lt;/div&gt;" style="text;html=1;align=center;verticalAlign=middle;resizable=0;points=[];autosize=1;strokeColor=none;fillColor=none;fontSize=12;fontFamily=jetbrains mono;fontColor=default;labelBackgroundColor=none;" parent="FP1et5ljPNJLmlY0rd01-85" vertex="1">
          <mxGeometry x="20" y="90" width="160" height="20" as="geometry" />
        </mxCell>
        <mxCell id="FP1et5ljPNJLmlY0rd01-90" value="&lt;div style=&quot;font-family: &amp;#34;jetbrains mono&amp;#34; , &amp;#34;consolas&amp;#34; , &amp;#34;courier new&amp;#34; , monospace ; font-size: 14px ; line-height: 19px&quot;&gt;&lt;span&gt;Subscriber: robot_i .....&lt;/span&gt;&lt;/div&gt;" style="text;html=1;align=center;verticalAlign=middle;resizable=0;points=[];autosize=1;strokeColor=none;fillColor=none;fontSize=12;fontFamily=jetbrains mono;fontColor=default;labelBackgroundColor=none;" parent="FP1et5ljPNJLmlY0rd01-85" vertex="1">
          <mxGeometry x="20" y="50" width="230" height="20" as="geometry" />
        </mxCell>
        <mxCell id="mfrsPGcJHBAsWg7DGjIN-5" value="&lt;div style=&quot;font-family: &amp;#34;jetbrains mono&amp;#34; ; font-size: 14px&quot;&gt;kimera_distributed:&lt;/div&gt;kimera_distributed_loop_closure_ros.launch" style="text;html=1;align=center;verticalAlign=middle;resizable=0;points=[];autosize=1;strokeColor=none;fillColor=none;fontColor=default;" parent="FP1et5ljPNJLmlY0rd01-43" vertex="1">
          <mxGeometry x="570" y="80" width="250" height="30" as="geometry" />
        </mxCell>
        <mxCell id="mfrsPGcJHBAsWg7DGjIN-2" value="&lt;div style=&quot;font-family: &amp;quot;jetbrains mono&amp;quot; , &amp;quot;consolas&amp;quot; , &amp;quot;courier new&amp;quot; , monospace ; font-size: 14px ; line-height: 19px&quot;&gt;&lt;span style=&quot;font-style: italic; font-family: &amp;quot;jetbrains mono&amp;quot;, consolas, &amp;quot;courier new&amp;quot;, monospace;&quot;&gt;SERVICE&lt;/span&gt;&lt;span&gt;::&lt;/span&gt;&lt;/div&gt;&lt;div style=&quot;font-family: &amp;quot;jetbrains mono&amp;quot; , &amp;quot;consolas&amp;quot; , &amp;quot;courier new&amp;quot; , monospace ; font-size: 14px ; line-height: 19px&quot;&gt;&lt;div style=&quot;font-family: &amp;quot;jetbrains mono&amp;quot;, consolas, &amp;quot;courier new&amp;quot;, monospace; line-height: 19px;&quot;&gt;&lt;span style=&quot;&quot;&gt;request_pose_graph&lt;/span&gt;&lt;/div&gt;&lt;/div&gt;" style="shape=hexagon;perimeter=hexagonPerimeter2;whiteSpace=wrap;html=1;fixedSize=1;strokeColor=default;fontColor=default;labelBackgroundColor=none;" parent="FP1et5ljPNJLmlY0rd01-43" vertex="1">
          <mxGeometry x="990" y="30" width="200" height="50" as="geometry" />
        </mxCell>
        <mxCell id="mfrsPGcJHBAsWg7DGjIN-4" value="" style="shape=flexArrow;endArrow=classic;startArrow=classic;html=1;rounded=0;fontColor=default;entryX=0;entryY=0.5;entryDx=0;entryDy=0;" parent="FP1et5ljPNJLmlY0rd01-43" target="mfrsPGcJHBAsWg7DGjIN-2" edge="1">
          <mxGeometry width="100" height="100" relative="1" as="geometry">
            <mxPoint x="900" y="-60" as="sourcePoint" />
            <mxPoint x="810" y="-90" as="targetPoint" />
          </mxGeometry>
        </mxCell>
        <mxCell id="D5_XRw2Pu5Uza7_adYzy-3" value="" style="edgeStyle=orthogonalEdgeStyle;rounded=0;orthogonalLoop=1;jettySize=auto;html=1;endArrow=block;endFill=0;shape=flexArrow;endWidth=13;endSize=3.97;" parent="1" source="D5_XRw2Pu5Uza7_adYzy-1" target="D5_XRw2Pu5Uza7_adYzy-2" edge="1">
          <mxGeometry relative="1" as="geometry" />
        </mxCell>
        <mxCell id="D5_XRw2Pu5Uza7_adYzy-1" value="&lt;div style=&quot;font-family: &amp;#34;jetbrains mono&amp;#34; , &amp;#34;consolas&amp;#34; , &amp;#34;courier new&amp;#34; , monospace ; font-size: 14px ; line-height: 19px&quot;&gt;&lt;div style=&quot;font-family: &amp;#34;jetbrains mono&amp;#34; , &amp;#34;consolas&amp;#34; , &amp;#34;courier new&amp;#34; , monospace ; line-height: 19px&quot;&gt;&lt;span&gt;dpgo_ros&lt;/span&gt;&lt;span&gt;::&lt;/span&gt;&lt;span&gt;PGOAgentROS&lt;/span&gt;&lt;br&gt;&lt;/div&gt;&lt;div style=&quot;font-family: &amp;#34;jetbrains mono&amp;#34; , &amp;#34;consolas&amp;#34; , &amp;#34;courier new&amp;#34; , monospace ; line-height: 19px&quot;&gt;&lt;span&gt;PGOAgent::iterate&lt;/span&gt;&lt;/div&gt;&lt;/div&gt;" style="whiteSpace=wrap;html=1;rounded=0;labelBackgroundColor=none;fontFamily=jetbrains mono;fontColor=default;" parent="1" vertex="1">
          <mxGeometry x="1210" y="400" width="220" height="60" as="geometry" />
        </mxCell>
        <mxCell id="D5_XRw2Pu5Uza7_adYzy-10" value="" style="edgeStyle=orthogonalEdgeStyle;rounded=0;orthogonalLoop=1;jettySize=auto;html=1;fontColor=default;endArrow=block;endFill=0;" parent="1" source="D5_XRw2Pu5Uza7_adYzy-2" target="D5_XRw2Pu5Uza7_adYzy-9" edge="1">
          <mxGeometry relative="1" as="geometry" />
        </mxCell>
        <mxCell id="D5_XRw2Pu5Uza7_adYzy-2" value="&lt;span class=&quot;mtk6&quot; style=&quot;font-family: &amp;quot;jetbrains mono&amp;quot;, consolas, &amp;quot;courier new&amp;quot;, monospace; font-size: 14px;&quot;&gt;PGOAgent&lt;/span&gt;&lt;span class=&quot;mtk1&quot; style=&quot;font-family: &amp;quot;jetbrains mono&amp;quot;, consolas, &amp;quot;courier new&amp;quot;, monospace; font-size: 14px;&quot;&gt;::&lt;/span&gt;&lt;span class=&quot;mtk7&quot; style=&quot;font-family: &amp;quot;jetbrains mono&amp;quot;, consolas, &amp;quot;courier new&amp;quot;, monospace; font-size: 14px;&quot;&gt;updateX&lt;/span&gt;" style="whiteSpace=wrap;html=1;fontFamily=jetbrains mono;rounded=0;labelBackgroundColor=none;fillColor=default;fontColor=default;" parent="1" vertex="1">
          <mxGeometry x="1484" y="400" width="193" height="60" as="geometry" />
        </mxCell>
        <mxCell id="D5_XRw2Pu5Uza7_adYzy-13" value="" style="edgeStyle=orthogonalEdgeStyle;rounded=0;orthogonalLoop=1;jettySize=auto;html=1;fontColor=#FF0000;endArrow=block;endFill=0;" parent="1" source="D5_XRw2Pu5Uza7_adYzy-7" target="D5_XRw2Pu5Uza7_adYzy-12" edge="1">
          <mxGeometry relative="1" as="geometry" />
        </mxCell>
        <mxCell id="D5_XRw2Pu5Uza7_adYzy-7" value="&lt;span style=&quot;font-family: &amp;quot;jetbrains mono&amp;quot; , &amp;quot;consolas&amp;quot; , &amp;quot;courier new&amp;quot; , monospace ; font-size: 14px&quot;&gt;PGOAgent::mPoseGraph&lt;br&gt;-&amp;gt;&lt;/span&gt;&lt;span style=&quot;font-family: &amp;quot;jetbrains mono&amp;quot;, consolas, &amp;quot;courier new&amp;quot;, monospace; font-size: 14px;&quot;&gt;setNeighborPoses&lt;br&gt;(&lt;/span&gt;&lt;span style=&quot;font-family: &amp;quot;jetbrains mono&amp;quot;, consolas, &amp;quot;courier new&amp;quot;, monospace; font-size: 14px;&quot;&gt;PGOAgent::neighborPoseDict&lt;/span&gt;&lt;span style=&quot;font-family: &amp;quot;jetbrains mono&amp;quot;, consolas, &amp;quot;courier new&amp;quot;, monospace; font-size: 14px;&quot;&gt;)&lt;/span&gt;" style="whiteSpace=wrap;html=1;fontFamily=jetbrains mono;rounded=0;labelBackgroundColor=none;fillColor=default;fontColor=default;" parent="1" vertex="1">
          <mxGeometry x="1448.75" y="600" width="263" height="62.5" as="geometry" />
        </mxCell>
        <mxCell id="D5_XRw2Pu5Uza7_adYzy-11" style="edgeStyle=orthogonalEdgeStyle;rounded=0;orthogonalLoop=1;jettySize=auto;html=1;fontColor=#FF0000;endArrow=block;endFill=0;" parent="1" source="D5_XRw2Pu5Uza7_adYzy-9" target="D5_XRw2Pu5Uza7_adYzy-7" edge="1">
          <mxGeometry relative="1" as="geometry" />
        </mxCell>
        <mxCell id="D5_XRw2Pu5Uza7_adYzy-9" value="&lt;span style=&quot;font-family: &amp;#34;jetbrains mono&amp;#34; , &amp;#34;consolas&amp;#34; , &amp;#34;courier new&amp;#34; , monospace ; font-size: 14px&quot;&gt;PGOAgent::&lt;font color=&quot;#ff0000&quot;&gt;mPoses&lt;/font&gt;Mutex&lt;br&gt;&lt;/span&gt;&lt;span style=&quot;font-family: &amp;#34;jetbrains mono&amp;#34; , &amp;#34;consolas&amp;#34; , &amp;#34;courier new&amp;#34; , monospace ; font-size: 14px&quot;&gt;PGOAgent::&lt;font color=&quot;#ff0000&quot;&gt;mMeasurements&lt;/font&gt;Mutex&lt;br&gt;&lt;/span&gt;&lt;span style=&quot;font-family: &amp;#34;jetbrains mono&amp;#34; , &amp;#34;consolas&amp;#34; , &amp;#34;courier new&amp;#34; , monospace ; font-size: 14px&quot;&gt;PGOAgent::&lt;font color=&quot;#ff0000&quot;&gt;mNeighborPoses&lt;/font&gt;Mutex&lt;/span&gt;&lt;span style=&quot;font-family: &amp;#34;jetbrains mono&amp;#34; , &amp;#34;consolas&amp;#34; , &amp;#34;courier new&amp;#34; , monospace ; font-size: 14px&quot;&gt;&lt;br&gt;&lt;/span&gt;" style="whiteSpace=wrap;html=1;fontFamily=jetbrains mono;rounded=0;labelBackgroundColor=none;fillColor=default;fontColor=default;" parent="1" vertex="1">
          <mxGeometry x="1452" y="498.75" width="256.5" height="62.5" as="geometry" />
        </mxCell>
        <mxCell id="D5_XRw2Pu5Uza7_adYzy-15" value="" style="edgeStyle=orthogonalEdgeStyle;rounded=0;orthogonalLoop=1;jettySize=auto;html=1;fontColor=default;endArrow=block;endFill=0;entryX=0.5;entryY=0;entryDx=0;entryDy=0;" parent="1" source="D5_XRw2Pu5Uza7_adYzy-12" target="8k7TBYNfOF9x0cU9X72l-25" edge="1">
          <mxGeometry relative="1" as="geometry" />
        </mxCell>
        <mxCell id="D5_XRw2Pu5Uza7_adYzy-12" value="&lt;div style=&quot;font-family: &amp;#34;jetbrains mono&amp;#34; , &amp;#34;consolas&amp;#34; , &amp;#34;courier new&amp;#34; , monospace ; font-size: 14px ; line-height: 19px&quot;&gt;mPoseGraph-&amp;gt;constructDataMatrices()&lt;br&gt;&lt;/div&gt;" style="whiteSpace=wrap;html=1;fontFamily=jetbrains mono;rounded=0;labelBackgroundColor=none;fillColor=default;fontColor=default;labelBorderColor=none;" parent="1" vertex="1">
          <mxGeometry x="1449.63" y="700" width="261.25" height="50" as="geometry" />
        </mxCell>
        <mxCell id="D5_XRw2Pu5Uza7_adYzy-14" value="&lt;div style=&quot;font-family: &amp;quot;jetbrains mono&amp;quot; , &amp;quot;consolas&amp;quot; , &amp;quot;courier new&amp;quot; , monospace ; font-size: 14px ; line-height: 19px&quot;&gt;&lt;div style=&quot;font-family: &amp;quot;jetbrains mono&amp;quot; , &amp;quot;consolas&amp;quot; , &amp;quot;courier new&amp;quot; , monospace ; line-height: 19px&quot;&gt;&lt;font color=&quot;#e5c07b&quot;&gt;QuadraticProblem &lt;/font&gt;&lt;span&gt;problem&lt;/span&gt;(&lt;span&gt;mPoseGraph&lt;/span&gt;)&lt;/div&gt;&lt;div style=&quot;font-family: &amp;quot;jetbrains mono&amp;quot; , &amp;quot;consolas&amp;quot; , &amp;quot;courier new&amp;quot; , monospace ; line-height: 19px&quot;&gt;&lt;div style=&quot;font-family: &amp;quot;jetbrains mono&amp;quot; , &amp;quot;consolas&amp;quot; , &amp;quot;courier new&amp;quot; , monospace ; line-height: 19px&quot;&gt;&lt;span style=&quot;color: rgb(229 , 192 , 123)&quot;&gt;QuadraticOptimizer&lt;/span&gt; &lt;font color=&quot;#282c34&quot;&gt;optimizer&lt;/font&gt;&lt;/div&gt;&lt;div style=&quot;font-family: &amp;quot;jetbrains mono&amp;quot; , &amp;quot;consolas&amp;quot; , &amp;quot;courier new&amp;quot; , monospace ; line-height: 19px&quot;&gt;&lt;font color=&quot;#282c34&quot;&gt;改优化的目标函数&lt;/font&gt;&lt;/div&gt;&lt;/div&gt;&lt;/div&gt;" style="whiteSpace=wrap;html=1;fontFamily=jetbrains mono;rounded=0;labelBackgroundColor=none;fillColor=default;fontColor=default;labelBorderColor=none;" parent="1" vertex="1">
          <mxGeometry x="1420" y="840" width="320" height="80" as="geometry" />
        </mxCell>
        <mxCell id="mfrsPGcJHBAsWg7DGjIN-10" value="" style="shape=flexArrow;endArrow=none;startArrow=none;html=1;rounded=0;fontColor=default;exitX=0.5;exitY=0;exitDx=0;exitDy=0;endFill=0;startFill=0;entryX=0.5;entryY=1;entryDx=0;entryDy=0;" parent="1" source="mfrsPGcJHBAsWg7DGjIN-2" target="mfrsPGcJHBAsWg7DGjIN-12" edge="1">
          <mxGeometry width="100" height="100" relative="1" as="geometry">
            <mxPoint x="460" y="680" as="sourcePoint" />
            <mxPoint x="400" y="280" as="targetPoint" />
          </mxGeometry>
        </mxCell>
        <mxCell id="mfrsPGcJHBAsWg7DGjIN-14" value="" style="edgeStyle=none;rounded=0;orthogonalLoop=1;jettySize=auto;html=1;fontColor=default;startArrow=none;startFill=0;endArrow=none;endFill=0;" parent="1" source="mfrsPGcJHBAsWg7DGjIN-12" target="mfrsPGcJHBAsWg7DGjIN-13" edge="1">
          <mxGeometry relative="1" as="geometry" />
        </mxCell>
        <mxCell id="mfrsPGcJHBAsWg7DGjIN-16" value="" style="edgeStyle=none;rounded=0;orthogonalLoop=1;jettySize=auto;html=1;fontColor=default;startArrow=none;startFill=0;endArrow=none;endFill=0;" parent="1" source="mfrsPGcJHBAsWg7DGjIN-12" target="mfrsPGcJHBAsWg7DGjIN-15" edge="1">
          <mxGeometry relative="1" as="geometry" />
        </mxCell>
        <mxCell id="mfrsPGcJHBAsWg7DGjIN-12" value="&lt;div style=&quot;font-family: &amp;quot;jetbrains mono&amp;quot;, consolas, &amp;quot;courier new&amp;quot;, monospace; font-size: 14px; line-height: 19px;&quot;&gt;&lt;span style=&quot;&quot;&gt;PoseGraph.msg&lt;/span&gt;&lt;/div&gt;" style="rounded=1;whiteSpace=wrap;html=1;labelBackgroundColor=none;fontColor=default;strokeColor=default;" parent="1" vertex="1">
          <mxGeometry x="340" y="260" width="120" height="30" as="geometry" />
        </mxCell>
        <mxCell id="mfrsPGcJHBAsWg7DGjIN-13" value="&lt;font face=&quot;jetbrains mono&quot;&gt;&lt;span style=&quot;font-size: 14px&quot;&gt;PoseGraphNode.msg&lt;/span&gt;&lt;/font&gt;" style="whiteSpace=wrap;html=1;rounded=1;labelBackgroundColor=none;" parent="1" vertex="1">
          <mxGeometry x="470" y="230" width="180" height="30" as="geometry" />
        </mxCell>
        <mxCell id="mfrsPGcJHBAsWg7DGjIN-15" value="&lt;font face=&quot;jetbrains mono&quot; style=&quot;font-size: 14px&quot;&gt;PoseGraphEdge.msg&lt;/font&gt;" style="whiteSpace=wrap;html=1;rounded=1;labelBackgroundColor=none;" parent="1" vertex="1">
          <mxGeometry x="470" y="300" width="180" height="30" as="geometry" />
        </mxCell>
        <mxCell id="mfrsPGcJHBAsWg7DGjIN-25" value="" style="edgeStyle=none;rounded=0;orthogonalLoop=1;jettySize=auto;html=1;fontFamily=jetbrains mono;fontSize=14;fontColor=#000000;startArrow=none;startFill=0;endArrow=blockThin;endFill=0;" parent="1" source="mfrsPGcJHBAsWg7DGjIN-17" target="mfrsPGcJHBAsWg7DGjIN-24" edge="1">
          <mxGeometry relative="1" as="geometry" />
        </mxCell>
        <mxCell id="mfrsPGcJHBAsWg7DGjIN-17" value="&lt;div style=&quot;font-family: &amp;#34;jetbrains mono&amp;#34; , &amp;#34;consolas&amp;#34; , &amp;#34;courier new&amp;#34; , monospace ; font-size: 14px ; line-height: 19px&quot;&gt;&lt;span style=&quot;font-style: italic ; font-family: &amp;#34;jetbrains mono&amp;#34; , &amp;#34;consolas&amp;#34; , &amp;#34;courier new&amp;#34; , monospace&quot;&gt;TOPIC&lt;/span&gt;&lt;span&gt;::&lt;/span&gt;&lt;/div&gt;&lt;div style=&quot;font-family: &amp;#34;jetbrains mono&amp;#34; , &amp;#34;consolas&amp;#34; , &amp;#34;courier new&amp;#34; , monospace ; font-size: 14px ; line-height: 19px&quot;&gt;&lt;div style=&quot;font-family: &amp;#34;jetbrains mono&amp;#34; , &amp;#34;consolas&amp;#34; , &amp;#34;courier new&amp;#34; , monospace ; line-height: 19px&quot;&gt;&lt;div style=&quot;font-family: &amp;#34;jetbrains mono&amp;#34; , &amp;#34;consolas&amp;#34; , &amp;#34;courier new&amp;#34; , monospace ; line-height: 19px&quot;&gt;&lt;span style=&quot;color: rgb(224 , 108 , 117)&quot;&gt;$topic_prefix&lt;/span&gt;/command&lt;/div&gt;&lt;/div&gt;&lt;/div&gt;" style="shape=hexagon;perimeter=hexagonPerimeter2;whiteSpace=wrap;html=1;fixedSize=1;strokeColor=default;fontColor=default;labelBackgroundColor=none;" parent="1" vertex="1">
          <mxGeometry x="860" y="540" width="220" height="50" as="geometry" />
        </mxCell>
        <mxCell id="mfrsPGcJHBAsWg7DGjIN-20" value="" style="endArrow=classic;html=1;rounded=0;fontFamily=jetbrains mono;fontSize=14;fontColor=#000000;entryX=0.5;entryY=0;entryDx=0;entryDy=0;exitX=0.5;exitY=1;exitDx=0;exitDy=0;" parent="1" source="mfrsPGcJHBAsWg7DGjIN-27" target="mfrsPGcJHBAsWg7DGjIN-17" edge="1">
          <mxGeometry relative="1" as="geometry">
            <mxPoint x="970" y="490" as="sourcePoint" />
            <mxPoint x="1080" y="400" as="targetPoint" />
          </mxGeometry>
        </mxCell>
        <mxCell id="mfrsPGcJHBAsWg7DGjIN-21" value="" style="shape=message;html=1;outlineConnect=0;labelBackgroundColor=none;fontFamily=jetbrains mono;fontSize=14;fontColor=#000000;strokeColor=default;" parent="mfrsPGcJHBAsWg7DGjIN-20" vertex="1">
          <mxGeometry width="20" height="14" relative="1" as="geometry">
            <mxPoint x="10" y="-10" as="offset" />
          </mxGeometry>
        </mxCell>
        <mxCell id="mfrsPGcJHBAsWg7DGjIN-22" value="接收" style="edgeLabel;html=1;align=center;verticalAlign=middle;resizable=0;points=[];fontSize=14;fontFamily=jetbrains mono;fontColor=#000000;" parent="mfrsPGcJHBAsWg7DGjIN-20" vertex="1" connectable="0">
          <mxGeometry x="-0.404" y="2" relative="1" as="geometry">
            <mxPoint x="-32" y="7" as="offset" />
          </mxGeometry>
        </mxCell>
        <mxCell id="mfrsPGcJHBAsWg7DGjIN-29" value="" style="edgeStyle=none;rounded=0;orthogonalLoop=1;jettySize=auto;html=1;fontFamily=jetbrains mono;fontSize=14;fontColor=#000000;startArrow=none;startFill=0;endArrow=blockThin;endFill=0;" parent="1" source="mfrsPGcJHBAsWg7DGjIN-24" target="mfrsPGcJHBAsWg7DGjIN-28" edge="1">
          <mxGeometry relative="1" as="geometry" />
        </mxCell>
        <mxCell id="mfrsPGcJHBAsWg7DGjIN-24" value="&lt;div style=&quot;font-family: &amp;quot;jetbrains mono&amp;quot;, consolas, &amp;quot;courier new&amp;quot;, monospace; font-size: 14px; line-height: 19px;&quot;&gt;&lt;span style=&quot;&quot;&gt;PGOAgentROS&lt;/span&gt;::&lt;span style=&quot;&quot;&gt;commandCallback&lt;/span&gt;&lt;/div&gt;" style="whiteSpace=wrap;html=1;labelBackgroundColor=none;fontColor=default;" parent="1" vertex="1">
          <mxGeometry x="820" y="610" width="300" height="40" as="geometry" />
        </mxCell>
        <mxCell id="mfrsPGcJHBAsWg7DGjIN-27" value="ROS::&lt;span style=&quot;font-family: &amp;#34;jetbrains mono&amp;#34; , &amp;#34;consolas&amp;#34; , &amp;#34;courier new&amp;#34; , monospace&quot;&gt;Timer ↓&lt;/span&gt;&lt;div style=&quot;font-family: &amp;#34;jetbrains mono&amp;#34; , &amp;#34;consolas&amp;#34; , &amp;#34;courier new&amp;#34; , monospace ; line-height: 19px&quot;&gt;&lt;span&gt;PGOAgentROS&lt;/span&gt;::&lt;span&gt;timerCallback ↓&lt;/span&gt;&lt;/div&gt;&lt;div style=&quot;font-family: &amp;#34;jetbrains mono&amp;#34; , &amp;#34;consolas&amp;#34; , &amp;#34;courier new&amp;#34; , monospace ; line-height: 19px&quot;&gt;&lt;div style=&quot;font-family: &amp;#34;jetbrains mono&amp;#34; , &amp;#34;consolas&amp;#34; , &amp;#34;courier new&amp;#34; , monospace ; line-height: 19px&quot;&gt;&lt;div style=&quot;line-height: 19px&quot;&gt;&lt;span&gt;(isLeader&lt;/span&gt;() &lt;span&gt;&amp;amp;&amp;amp;&lt;/span&gt; &lt;span&gt;elapsed_sec&lt;/span&gt; &lt;span&gt;&amp;gt;&lt;/span&gt; &lt;span&gt;10)&lt;/span&gt;&lt;/div&gt;&lt;div style=&quot;line-height: 19px&quot;&gt;&lt;div style=&quot;font-family: &amp;#34;jetbrains mono&amp;#34; , &amp;#34;consolas&amp;#34; , &amp;#34;courier new&amp;#34; , monospace ; line-height: 19px&quot;&gt;publishUpdateWeightCommand ↓&lt;/div&gt;&lt;div style=&quot;font-family: &amp;#34;jetbrains mono&amp;#34; , &amp;#34;consolas&amp;#34; , &amp;#34;courier new&amp;#34; , monospace ; line-height: 19px&quot;&gt;&lt;div style=&quot;font-family: &amp;#34;jetbrains mono&amp;#34; , &amp;#34;consolas&amp;#34; , &amp;#34;courier new&amp;#34; , monospace ; line-height: 19px&quot;&gt;&lt;span style=&quot;font-family: &amp;#34;jetbrains mono&amp;#34; , &amp;#34;consolas&amp;#34; , &amp;#34;courier new&amp;#34; , monospace&quot;&gt;mCommandPublisher&lt;/span&gt;&lt;span style=&quot;font-family: &amp;#34;jetbrains mono&amp;#34; , &amp;#34;consolas&amp;#34; , &amp;#34;courier new&amp;#34; , monospace&quot;&gt;.&lt;/span&gt;&lt;span style=&quot;font-family: &amp;#34;jetbrains mono&amp;#34; , &amp;#34;consolas&amp;#34; , &amp;#34;courier new&amp;#34; , monospace&quot;&gt;publish:+&lt;/span&gt;&lt;/div&gt;&lt;div style=&quot;font-family: &amp;#34;jetbrains mono&amp;#34; , &amp;#34;consolas&amp;#34; , &amp;#34;courier new&amp;#34; , monospace ; line-height: 19px&quot;&gt;&lt;font color=&quot;#ff0000&quot;&gt;Command::UPDATE_WEIGHT&lt;/font&gt;&lt;/div&gt;&lt;/div&gt;&lt;/div&gt;&lt;/div&gt;&lt;/div&gt;" style="shape=process;whiteSpace=wrap;html=1;backgroundOutline=1;labelBackgroundColor=none;fontFamily=jetbrains mono;fontSize=14;fontColor=default;strokeColor=default;" parent="1" vertex="1">
          <mxGeometry x="790" y="360" width="360" height="140" as="geometry" />
        </mxCell>
        <mxCell id="mfrsPGcJHBAsWg7DGjIN-31" value="" style="edgeStyle=none;rounded=0;orthogonalLoop=1;jettySize=auto;html=1;fontFamily=jetbrains mono;fontSize=14;fontColor=#000000;startArrow=none;startFill=0;endArrow=blockThin;endFill=0;" parent="1" source="mfrsPGcJHBAsWg7DGjIN-28" target="mfrsPGcJHBAsWg7DGjIN-30" edge="1">
          <mxGeometry relative="1" as="geometry" />
        </mxCell>
        <mxCell id="mfrsPGcJHBAsWg7DGjIN-28" value="&lt;span style=&quot;font-family: &amp;quot;jetbrains mono&amp;quot; , &amp;quot;consolas&amp;quot; , &amp;quot;courier new&amp;quot; , monospace ; font-size: 14px&quot;&gt;PGOAgentROS&lt;/span&gt;&lt;span style=&quot;font-family: &amp;quot;jetbrains mono&amp;quot; , &amp;quot;consolas&amp;quot; , &amp;quot;courier new&amp;quot; , monospace ; font-size: 14px&quot;&gt;::&lt;/span&gt;&lt;span style=&quot;font-family: &amp;quot;jetbrains mono&amp;quot;, consolas, &amp;quot;courier new&amp;quot;, monospace; font-size: 14px;&quot;&gt;updateActiveRobots&lt;/span&gt;&lt;span style=&quot;font-family: &amp;quot;jetbrains mono&amp;quot; , &amp;quot;consolas&amp;quot; , &amp;quot;courier new&amp;quot; , monospace ; font-size: 14px&quot;&gt;&lt;br&gt;&lt;/span&gt;&lt;div style=&quot;font-family: &amp;quot;jetbrains mono&amp;quot;, consolas, &amp;quot;courier new&amp;quot;, monospace; font-size: 14px; line-height: 19px;&quot;&gt;&lt;div style=&quot;font-family: &amp;quot;jetbrains mono&amp;quot; , &amp;quot;consolas&amp;quot; , &amp;quot;courier new&amp;quot; , monospace ; line-height: 19px&quot;&gt;&lt;span style=&quot;&quot;&gt;PGOAgentROS&lt;/span&gt;&lt;span style=&quot;&quot;&gt;::&lt;/span&gt;&lt;span style=&quot;&quot;&gt;requestPoseGraph&lt;/span&gt;&lt;/div&gt;&lt;/div&gt;" style="whiteSpace=wrap;html=1;labelBackgroundColor=none;fontColor=default;" parent="1" vertex="1">
          <mxGeometry x="830" y="670" width="280" height="60" as="geometry" />
        </mxCell>
        <mxCell id="mfrsPGcJHBAsWg7DGjIN-30" value="...." style="whiteSpace=wrap;html=1;labelBackgroundColor=none;" parent="1" vertex="1">
          <mxGeometry x="900" y="760" width="140" height="30" as="geometry" />
        </mxCell>
        <mxCell id="mfrsPGcJHBAsWg7DGjIN-32" value="" style="edgeStyle=orthogonalEdgeStyle;rounded=0;orthogonalLoop=1;jettySize=auto;html=1;endArrow=block;endFill=0;shape=flexArrow;endWidth=13;endSize=3.97;exitX=0;exitY=0.5;exitDx=0;exitDy=0;entryX=1;entryY=0.5;entryDx=0;entryDy=0;" parent="1" source="mfrsPGcJHBAsWg7DGjIN-28" target="mfrsPGcJHBAsWg7DGjIN-33" edge="1">
          <mxGeometry relative="1" as="geometry">
            <mxPoint x="1180" y="690" as="sourcePoint" />
            <mxPoint x="960" y="980" as="targetPoint" />
          </mxGeometry>
        </mxCell>
        <mxCell id="mfrsPGcJHBAsWg7DGjIN-36" value="" style="edgeStyle=none;rounded=0;orthogonalLoop=1;jettySize=auto;html=1;fontFamily=jetbrains mono;fontSize=14;fontColor=default;startArrow=none;startFill=0;endArrow=blockThin;endFill=0;" parent="1" source="mfrsPGcJHBAsWg7DGjIN-33" target="mfrsPGcJHBAsWg7DGjIN-35" edge="1">
          <mxGeometry relative="1" as="geometry" />
        </mxCell>
        <mxCell id="mfrsPGcJHBAsWg7DGjIN-33" value="&lt;span style=&quot;font-family: &amp;#34;jetbrains mono&amp;#34; , &amp;#34;consolas&amp;#34; , &amp;#34;courier new&amp;#34; , monospace ; font-size: 14px&quot;&gt;PGOAgentROS&lt;/span&gt;&lt;span style=&quot;font-family: &amp;#34;jetbrains mono&amp;#34; , &amp;#34;consolas&amp;#34; , &amp;#34;courier new&amp;#34; , monospace ; font-size: 14px&quot;&gt;::&lt;/span&gt;&lt;span style=&quot;font-family: &amp;#34;jetbrains mono&amp;#34; , &amp;#34;consolas&amp;#34; , &amp;#34;courier new&amp;#34; , monospace ; font-size: 14px&quot;&gt;requestPoseGraph&lt;/span&gt;" style="whiteSpace=wrap;html=1;fontFamily=jetbrains mono;rounded=0;labelBackgroundColor=none;fillColor=default;fontColor=default;" parent="1" vertex="1">
          <mxGeometry x="540" y="670" width="260" height="60" as="geometry" />
        </mxCell>
        <mxCell id="mfrsPGcJHBAsWg7DGjIN-34" value="" style="edgeStyle=orthogonalEdgeStyle;rounded=0;orthogonalLoop=1;jettySize=auto;html=1;endArrow=block;endFill=0;shape=flexArrow;endWidth=13;endSize=3.97;exitX=0;exitY=0.5;exitDx=0;exitDy=0;entryX=1;entryY=0.5;entryDx=0;entryDy=0;" parent="1" source="D5_XRw2Pu5Uza7_adYzy-1" target="mfrsPGcJHBAsWg7DGjIN-27" edge="1">
          <mxGeometry relative="1" as="geometry">
            <mxPoint x="1590" y="430" as="sourcePoint" />
            <mxPoint x="1660" y="430" as="targetPoint" />
          </mxGeometry>
        </mxCell>
        <mxCell id="mfrsPGcJHBAsWg7DGjIN-39" value="" style="edgeStyle=none;rounded=0;orthogonalLoop=1;jettySize=auto;html=1;fontFamily=jetbrains mono;fontSize=14;fontColor=default;startArrow=none;startFill=0;endArrow=blockThin;endFill=0;entryX=0.5;entryY=0;entryDx=0;entryDy=0;" parent="1" source="mfrsPGcJHBAsWg7DGjIN-35" target="mfrsPGcJHBAsWg7DGjIN-42" edge="1">
          <mxGeometry relative="1" as="geometry">
            <mxPoint x="670" y="810" as="targetPoint" />
          </mxGeometry>
        </mxCell>
        <mxCell id="mfrsPGcJHBAsWg7DGjIN-35" value="&lt;div style=&quot;font-family: &amp;quot;jetbrains mono&amp;quot;, consolas, &amp;quot;courier new&amp;quot;, monospace; font-size: 14px; line-height: 19px;&quot;&gt;&lt;span style=&quot;&quot;&gt;ros&lt;/span&gt;::&lt;span style=&quot;&quot;&gt;service&lt;/span&gt;::&lt;span style=&quot;&quot;&gt;call&lt;/span&gt;&lt;/div&gt;" style="whiteSpace=wrap;html=1;fontFamily=jetbrains mono;rounded=0;labelBackgroundColor=none;fontColor=default;" parent="1" vertex="1">
          <mxGeometry x="540" y="750" width="260" height="30" as="geometry" />
        </mxCell>
        <mxCell id="mfrsPGcJHBAsWg7DGjIN-37" value="" style="shape=flexArrow;endArrow=classic;startArrow=classic;html=1;rounded=0;fontColor=default;entryX=0.5;entryY=1;entryDx=0;entryDy=0;exitX=0;exitY=0.5;exitDx=0;exitDy=0;" parent="1" source="mfrsPGcJHBAsWg7DGjIN-35" target="mfrsPGcJHBAsWg7DGjIN-2" edge="1">
          <mxGeometry width="100" height="100" relative="1" as="geometry">
            <mxPoint x="218.8888888888887" y="614.9999999999998" as="sourcePoint" />
            <mxPoint x="385" y="500.0000000000002" as="targetPoint" />
            <Array as="points">
              <mxPoint x="400" y="765" />
            </Array>
          </mxGeometry>
        </mxCell>
        <mxCell id="mfrsPGcJHBAsWg7DGjIN-42" value="&lt;div style=&quot;font-family: &amp;quot;jetbrains mono&amp;quot; , &amp;quot;consolas&amp;quot; , &amp;quot;courier new&amp;quot; , monospace&quot;&gt;&amp;amp;edge&amp;nbsp;:&amp;nbsp;pose_graph.edges ↓&lt;/div&gt;&lt;div style=&quot;font-family: &amp;quot;jetbrains mono&amp;quot; , &amp;quot;consolas&amp;quot; , &amp;quot;courier new&amp;quot; , monospace&quot;&gt;&amp;nbsp; &amp;nbsp;&amp;nbsp;&lt;font color=&quot;#cccc00&quot;&gt;RelativeSEMeasurement&amp;nbsp;&lt;/font&gt;m&amp;nbsp;=&lt;/div&gt;&lt;div style=&quot;font-family: &amp;quot;jetbrains mono&amp;quot; , &amp;quot;consolas&amp;quot; , &amp;quot;courier new&amp;quot; , monospace&quot;&gt;RelativeMeasurementFromMsg(edge) ↓&lt;/div&gt;&lt;div style=&quot;font-family: &amp;quot;jetbrains mono&amp;quot; , &amp;quot;consolas&amp;quot; , &amp;quot;courier new&amp;quot; , monospace&quot;&gt;&lt;span class=&quot;mtk6&quot;&gt;DPGO&lt;/span&gt;&lt;span class=&quot;mtk1&quot;&gt;::&lt;/span&gt;&lt;span class=&quot;mtk6&quot;&gt;PGOAgent&lt;/span&gt;&lt;span class=&quot;mtk1&quot;&gt;::&lt;/span&gt;&lt;span class=&quot;mtk7&quot;&gt;&lt;font color=&quot;#ff0000&quot;&gt;addMeasurement&lt;/font&gt;&lt;/span&gt;(m)&lt;/div&gt;&lt;div style=&quot;font-family: &amp;quot;jetbrains mono&amp;quot; , &amp;quot;consolas&amp;quot; , &amp;quot;courier new&amp;quot; , monospace&quot;&gt;&lt;br&gt;&lt;/div&gt;&lt;div style=&quot;font-family: &amp;quot;jetbrains mono&amp;quot; , &amp;quot;consolas&amp;quot; , &amp;quot;courier new&amp;quot; , monospace&quot;&gt;相对测量单独用一个变量存&lt;/div&gt;&lt;div style=&quot;font-family: &amp;quot;jetbrains mono&amp;quot; , &amp;quot;consolas&amp;quot; , &amp;quot;courier new&amp;quot; , monospace&quot;&gt;t时间 r1测r2的相对距离&lt;/div&gt;&lt;div style=&quot;font-family: &amp;quot;jetbrains mono&amp;quot; , &amp;quot;consolas&amp;quot; , &amp;quot;courier new&amp;quot; , monospace&quot;&gt;部分相对测量d 未知，时间戳对不上，设置成-1&lt;/div&gt;" style="shape=process;whiteSpace=wrap;html=1;backgroundOutline=1;labelBackgroundColor=none;fontFamily=jetbrains mono;fontSize=14;fontColor=default;strokeColor=default;" parent="1" vertex="1">
          <mxGeometry x="480" y="820" width="380" height="200" as="geometry" />
        </mxCell>
        <mxCell id="8k7TBYNfOF9x0cU9X72l-1" value="" style="triangle;whiteSpace=wrap;html=1;rotation=-45;" parent="1" vertex="1">
          <mxGeometry x="920" y="100" width="30" height="60" as="geometry" />
        </mxCell>
        <mxCell id="8k7TBYNfOF9x0cU9X72l-2" value="R1&lt;div&gt;Pose1&lt;/div&gt;" style="ellipse;whiteSpace=wrap;html=1;fillStyle=auto;gradientColor=none;strokeColor=default;dashed=1;" parent="1" vertex="1">
          <mxGeometry x="670" y="80.00000000000001" width="80" height="40" as="geometry" />
        </mxCell>
        <mxCell id="8k7TBYNfOF9x0cU9X72l-3" value="R1&lt;div&gt;Pose2&lt;/div&gt;" style="ellipse;whiteSpace=wrap;html=1;" parent="1" vertex="1">
          <mxGeometry x="710" y="200" width="80" height="40" as="geometry" />
        </mxCell>
        <mxCell id="8k7TBYNfOF9x0cU9X72l-4" value="R2&lt;div&gt;Pose4&lt;/div&gt;" style="ellipse;whiteSpace=wrap;html=1;dashed=1;dashPattern=12 12;" parent="1" vertex="1">
          <mxGeometry x="1150" y="290" width="80" height="40" as="geometry" />
        </mxCell>
        <mxCell id="8k7TBYNfOF9x0cU9X72l-5" value="R2&lt;div&gt;Pose3&lt;/div&gt;" style="ellipse;whiteSpace=wrap;html=1;dashed=1;dashPattern=12 12;" parent="1" vertex="1">
          <mxGeometry x="960" y="220" width="80" height="40" as="geometry" />
        </mxCell>
        <mxCell id="8k7TBYNfOF9x0cU9X72l-7" style="edgeStyle=none;rounded=0;orthogonalLoop=1;jettySize=auto;html=1;entryX=-0.073;entryY=0.028;entryDx=0;entryDy=0;entryPerimeter=0;endArrow=none;startFill=0;exitX=1;exitY=0;exitDx=0;exitDy=0;" parent="1" source="8k7TBYNfOF9x0cU9X72l-2" target="8k7TBYNfOF9x0cU9X72l-1" edge="1">
          <mxGeometry relative="1" as="geometry">
            <mxPoint x="898.0079061295169" y="110.00018144347369" as="targetPoint" />
          </mxGeometry>
        </mxCell>
        <mxCell id="8k7TBYNfOF9x0cU9X72l-9" style="edgeStyle=none;rounded=0;orthogonalLoop=1;jettySize=auto;html=1;entryX=-0.008;entryY=0.954;entryDx=0;entryDy=0;entryPerimeter=0;endArrow=none;startFill=0;" parent="1" source="8k7TBYNfOF9x0cU9X72l-5" target="8k7TBYNfOF9x0cU9X72l-1" edge="1">
          <mxGeometry relative="1" as="geometry" />
        </mxCell>
        <mxCell id="8k7TBYNfOF9x0cU9X72l-15" value="&lt;div style=&quot;font-family: &amp;quot;jetbrains mono&amp;quot; , &amp;quot;consolas&amp;quot; , &amp;quot;courier new&amp;quot; , monospace ; font-size: 14px ; line-height: 19px&quot;&gt;&lt;span style=&quot;font-style: italic; font-family: &amp;quot;jetbrains mono&amp;quot;, consolas, &amp;quot;courier new&amp;quot;, monospace;&quot;&gt;SERVICE&lt;/span&gt;&lt;span&gt;::&lt;/span&gt;&lt;/div&gt;&lt;div style=&quot;font-family: &amp;quot;jetbrains mono&amp;quot; , &amp;quot;consolas&amp;quot; , &amp;quot;courier new&amp;quot; , monospace ; font-size: 14px ; line-height: 19px&quot;&gt;&lt;div style=&quot;font-family: &amp;quot;jetbrains mono&amp;quot;, consolas, &amp;quot;courier new&amp;quot;, monospace; line-height: 19px;&quot;&gt;&lt;span style=&quot;&quot;&gt;request_relative d&lt;/span&gt;&lt;/div&gt;&lt;/div&gt;" style="shape=hexagon;perimeter=hexagonPerimeter2;whiteSpace=wrap;html=1;fixedSize=1;strokeColor=default;fontColor=default;labelBackgroundColor=none;" parent="1" vertex="1">
          <mxGeometry x="530" y="430" width="200" height="50" as="geometry" />
        </mxCell>
        <mxCell id="8k7TBYNfOF9x0cU9X72l-16" value="" style="shape=flexArrow;endArrow=classic;startArrow=classic;html=1;rounded=0;fontColor=default;entryX=0.46;entryY=0.96;entryDx=0;entryDy=0;exitX=0;exitY=0.5;exitDx=0;exitDy=0;entryPerimeter=0;" parent="1" source="mfrsPGcJHBAsWg7DGjIN-35" target="8k7TBYNfOF9x0cU9X72l-15" edge="1">
          <mxGeometry width="100" height="100" relative="1" as="geometry">
            <mxPoint x="550" y="775" as="sourcePoint" />
            <mxPoint x="410" y="470" as="targetPoint" />
            <Array as="points">
              <mxPoint x="410" y="765" />
            </Array>
          </mxGeometry>
        </mxCell>
        <mxCell id="8k7TBYNfOF9x0cU9X72l-17" style="edgeStyle=none;rounded=0;orthogonalLoop=1;jettySize=auto;html=1;exitX=0.775;exitY=0.825;exitDx=0;exitDy=0;exitPerimeter=0;shape=flexArrow;dashed=1;" parent="1" source="8k7TBYNfOF9x0cU9X72l-2" target="8k7TBYNfOF9x0cU9X72l-5" edge="1">
          <mxGeometry relative="1" as="geometry">
            <mxPoint x="770" y="280" as="sourcePoint" />
            <mxPoint x="920" y="190" as="targetPoint" />
          </mxGeometry>
        </mxCell>
        <mxCell id="8k7TBYNfOF9x0cU9X72l-18" value="Text" style="edgeLabel;html=1;align=center;verticalAlign=middle;resizable=0;points=[];" parent="8k7TBYNfOF9x0cU9X72l-17" vertex="1" connectable="0">
          <mxGeometry x="-0.39" y="3" relative="1" as="geometry">
            <mxPoint as="offset" />
          </mxGeometry>
        </mxCell>
        <mxCell id="8k7TBYNfOF9x0cU9X72l-19" value="R-t&lt;div&gt;d&lt;/div&gt;" style="edgeLabel;html=1;align=center;verticalAlign=middle;resizable=0;points=[];" parent="8k7TBYNfOF9x0cU9X72l-17" vertex="1" connectable="0">
          <mxGeometry x="-0.2317" y="3" relative="1" as="geometry">
            <mxPoint x="-22" y="21" as="offset" />
          </mxGeometry>
        </mxCell>
        <mxCell id="8k7TBYNfOF9x0cU9X72l-20" style="edgeStyle=none;rounded=0;orthogonalLoop=1;jettySize=auto;html=1;shape=flexArrow;exitX=1;exitY=1;exitDx=0;exitDy=0;entryX=0.038;entryY=0.675;entryDx=0;entryDy=0;entryPerimeter=0;" parent="1" source="8k7TBYNfOF9x0cU9X72l-3" target="8k7TBYNfOF9x0cU9X72l-4" edge="1">
          <mxGeometry relative="1" as="geometry">
            <mxPoint x="820" y="250" as="sourcePoint" />
            <mxPoint x="1060" y="363" as="targetPoint" />
          </mxGeometry>
        </mxCell>
        <mxCell id="8k7TBYNfOF9x0cU9X72l-22" value="R-t&lt;div&gt;d&lt;/div&gt;" style="edgeLabel;html=1;align=center;verticalAlign=middle;resizable=0;points=[];" parent="8k7TBYNfOF9x0cU9X72l-20" vertex="1" connectable="0">
          <mxGeometry x="-0.2317" y="3" relative="1" as="geometry">
            <mxPoint x="-22" y="21" as="offset" />
          </mxGeometry>
        </mxCell>
        <mxCell id="8k7TBYNfOF9x0cU9X72l-23" value="R1&lt;div&gt;Pose2&lt;/div&gt;" style="ellipse;whiteSpace=wrap;html=1;" parent="1" vertex="1">
          <mxGeometry x="620" y="-30" width="80" height="40" as="geometry" />
        </mxCell>
        <mxCell id="8k7TBYNfOF9x0cU9X72l-24" value="R2&lt;div&gt;Pose3&lt;/div&gt;" style="ellipse;whiteSpace=wrap;html=1;dashed=1;dashPattern=12 12;" parent="1" vertex="1">
          <mxGeometry x="1050" y="100" width="80" height="40" as="geometry" />
        </mxCell>
        <mxCell id="8k7TBYNfOF9x0cU9X72l-26" style="edgeStyle=none;rounded=0;orthogonalLoop=1;jettySize=auto;html=1;entryX=0;entryY=0.5;entryDx=0;entryDy=0;" parent="1" source="8k7TBYNfOF9x0cU9X72l-25" target="D5_XRw2Pu5Uza7_adYzy-14" edge="1">
          <mxGeometry relative="1" as="geometry" />
        </mxCell>
        <mxCell id="8k7TBYNfOF9x0cU9X72l-25" value="&lt;div style=&quot;font-family: &amp;quot;jetbrains mono&amp;quot; , &amp;quot;consolas&amp;quot; , &amp;quot;courier new&amp;quot; , monospace ; font-size: 14px ; line-height: 19px&quot;&gt;排序 选出同目标和原点&lt;/div&gt;&lt;div style=&quot;font-family: &amp;quot;jetbrains mono&amp;quot; , &amp;quot;consolas&amp;quot; , &amp;quot;courier new&amp;quot; , monospace ; font-size: 14px ; line-height: 19px&quot;&gt;d= -1插值&lt;/div&gt;" style="whiteSpace=wrap;html=1;fontFamily=jetbrains mono;rounded=0;labelBackgroundColor=none;fillColor=default;fontColor=default;labelBorderColor=none;" parent="1" vertex="1">
          <mxGeometry x="1110" y="780" width="261.25" height="50" as="geometry" />
        </mxCell>
        <mxCell id="8k7TBYNfOF9x0cU9X72l-27" style="edgeStyle=none;rounded=0;orthogonalLoop=1;jettySize=auto;html=1;shape=flexArrow;exitX=1;exitY=0.5;exitDx=0;exitDy=0;entryX=0;entryY=0.5;entryDx=0;entryDy=0;" parent="1" source="8k7TBYNfOF9x0cU9X72l-23" target="8k7TBYNfOF9x0cU9X72l-24" edge="1">
          <mxGeometry relative="1" as="geometry">
            <mxPoint x="788" y="-20" as="sourcePoint" />
            <mxPoint x="1163" y="63" as="targetPoint" />
          </mxGeometry>
        </mxCell>
        <mxCell id="8k7TBYNfOF9x0cU9X72l-29" value="R-t&lt;div&gt;d&lt;/div&gt;" style="edgeLabel;html=1;align=center;verticalAlign=middle;resizable=0;points=[];" parent="8k7TBYNfOF9x0cU9X72l-27" vertex="1" connectable="0">
          <mxGeometry x="-0.2317" y="3" relative="1" as="geometry">
            <mxPoint x="-22" y="53" as="offset" />
          </mxGeometry>
        </mxCell>
        <mxCell id="8k7TBYNfOF9x0cU9X72l-30" value="" style="curved=1;endArrow=none;html=1;rounded=0;startFill=1;startArrow=classic;dashed=1;dashPattern=8 8;" parent="1" edge="1">
          <mxGeometry width="50" height="50" relative="1" as="geometry">
            <mxPoint x="710" y="290" as="sourcePoint" />
            <mxPoint x="610" y="-70" as="targetPoint" />
            <Array as="points">
              <mxPoint x="710" y="160" />
              <mxPoint x="660" y="90" />
              <mxPoint x="630" y="50" />
              <mxPoint x="620" y="20" />
            </Array>
          </mxGeometry>
        </mxCell>
        <mxCell id="8k7TBYNfOF9x0cU9X72l-32" value="" style="curved=1;endArrow=none;html=1;rounded=0;startFill=1;startArrow=classic;dashed=1;dashPattern=8 8;" parent="1" edge="1">
          <mxGeometry width="50" height="50" relative="1" as="geometry">
            <mxPoint x="1270" y="300" as="sourcePoint" />
            <mxPoint x="1160" y="80" as="targetPoint" />
            <Array as="points">
              <mxPoint x="1190" y="290" />
              <mxPoint x="1010" y="260" />
              <mxPoint x="1100" y="170" />
            </Array>
          </mxGeometry>
        </mxCell>
        <mxCell id="KNfQoDFmdkwENuzwr4SW-1" value="" style="triangle;whiteSpace=wrap;html=1;rotation=-45;" vertex="1" parent="1">
          <mxGeometry x="920" y="-150" width="30" height="60" as="geometry" />
        </mxCell>
        <mxCell id="KNfQoDFmdkwENuzwr4SW-2" value="R1&lt;div&gt;Pose1&lt;/div&gt;" style="ellipse;whiteSpace=wrap;html=1;fillStyle=auto;gradientColor=none;strokeColor=default;dashed=1;" vertex="1" parent="1">
          <mxGeometry x="590" y="-130" width="80" height="40" as="geometry" />
        </mxCell>
        <mxCell id="KNfQoDFmdkwENuzwr4SW-3" value="R2&lt;div&gt;Pose3&lt;/div&gt;" style="ellipse;whiteSpace=wrap;html=1;dashed=1;dashPattern=12 12;" vertex="1" parent="1">
          <mxGeometry x="1090" y="40" width="80" height="40" as="geometry" />
        </mxCell>
        <mxCell id="KNfQoDFmdkwENuzwr4SW-4" style="edgeStyle=none;rounded=0;orthogonalLoop=1;jettySize=auto;html=1;entryX=-0.073;entryY=0.028;entryDx=0;entryDy=0;entryPerimeter=0;endArrow=none;startFill=0;exitX=1;exitY=0;exitDx=0;exitDy=0;" edge="1" parent="1" source="KNfQoDFmdkwENuzwr4SW-2" target="KNfQoDFmdkwENuzwr4SW-1">
          <mxGeometry relative="1" as="geometry">
            <mxPoint x="898.0079061295169" y="-139.9998185565263" as="targetPoint" />
          </mxGeometry>
        </mxCell>
        <mxCell id="KNfQoDFmdkwENuzwr4SW-5" style="edgeStyle=none;rounded=0;orthogonalLoop=1;jettySize=auto;html=1;entryX=-0.008;entryY=0.954;entryDx=0;entryDy=0;entryPerimeter=0;endArrow=none;startFill=0;" edge="1" parent="1" source="KNfQoDFmdkwENuzwr4SW-3" target="KNfQoDFmdkwENuzwr4SW-1">
          <mxGeometry relative="1" as="geometry" />
        </mxCell>
        <mxCell id="KNfQoDFmdkwENuzwr4SW-6" style="edgeStyle=none;rounded=0;orthogonalLoop=1;jettySize=auto;html=1;exitX=0.775;exitY=0.825;exitDx=0;exitDy=0;exitPerimeter=0;shape=flexArrow;dashed=1;" edge="1" parent="1" source="KNfQoDFmdkwENuzwr4SW-2" target="KNfQoDFmdkwENuzwr4SW-3">
          <mxGeometry relative="1" as="geometry">
            <mxPoint x="770" y="30" as="sourcePoint" />
            <mxPoint x="920" y="-60" as="targetPoint" />
          </mxGeometry>
        </mxCell>
        <mxCell id="KNfQoDFmdkwENuzwr4SW-7" value="Text" style="edgeLabel;html=1;align=center;verticalAlign=middle;resizable=0;points=[];" vertex="1" connectable="0" parent="KNfQoDFmdkwENuzwr4SW-6">
          <mxGeometry x="-0.39" y="3" relative="1" as="geometry">
            <mxPoint as="offset" />
          </mxGeometry>
        </mxCell>
        <mxCell id="KNfQoDFmdkwENuzwr4SW-8" value="R-t&lt;div&gt;d&lt;/div&gt;" style="edgeLabel;html=1;align=center;verticalAlign=middle;resizable=0;points=[];" vertex="1" connectable="0" parent="KNfQoDFmdkwENuzwr4SW-6">
          <mxGeometry x="-0.2317" y="3" relative="1" as="geometry">
            <mxPoint x="-22" y="21" as="offset" />
          </mxGeometry>
        </mxCell>
      </root>
    </mxGraphModel>
  </diagram>
</mxfile>
